<svg width="128" height="128" viewBox="0 0 128 128" fill="none" xmlns="http://www.w3.org/2000/svg">
<path d="M99.3199 28.84L93.5099 9.49999L91.5299 6.83999C91.5299 6.83999 91.3799 6.65999 91.3599 6.59999C91.2999 6.34999 91.2299 5.93999 91.4699 5.62999C91.6499 5.39999 91.9599 5.33999 92.3199 5.36999C92.4599 5.37999 92.7999 5.50999 93.3399 5.80999C98.6499 8.80999 121.55 27.56 123.48 57.83C124.57 74.93 118.33 93.23 105.21 105.99C92.7499 118.1 73.9299 125.64 53.2299 122.69C22.2899 118.28 9.00991 99.48 5.53991 93.27C4.92991 92.17 4.62991 91.47 4.56991 91.3C3.74991 89.15 3.96991 88.06 4.73991 87.81C4.93991 87.75 5.38991 87.83 5.63991 88.11C6.63991 89.23 8.45991 89.96 8.45991 89.96L21.3399 100.39L85.2299 105.23L107.88 55.85L99.3199 28.84V28.84Z" fill="#FFB803"/>
<path d="M73.6499 87.67C89.6199 77.77 97.4199 60.95 98.0399 45.39C98.9399 22.6 91.3599 6.59 91.3599 6.59C91.3599 6.59 105.37 18.09 113.04 34.67C120.71 51.25 122.04 78.54 105.26 98.07C86.8099 119.52 62.0799 120.79 46.5299 116.77C14.2599 108.42 5.43994 87.94 5.43994 87.94C5.43994 87.94 23.2199 97.89 43.2099 96.84C58.0899 96.06 65.7499 92.57 73.6499 87.67V87.67Z" fill="#FFCA29"/>
</svg>
