<svg width="128" height="128" viewBox="0 0 128 128" fill="none" xmlns="http://www.w3.org/2000/svg">
<path d="M37.41 41.95C27.7 54.43 27.87 76.6 40.28 87.59C54.37 100.06 74.2 99.93 86.67 88.46C101.62 74.7 100.76 51.8 87.54 38.83C74.25 25.79 50.5 25.11 37.41 41.95V41.95Z" fill="#FCC11A"/>
<path d="M52.9999 37.67C49.1599 35.97 44.9599 40.6 43.1299 43.76C41.2999 46.93 39.5999 53.14 43.4999 54.73C47.3999 56.31 50.1999 53.63 53.0099 49C55.7999 44.37 57.3899 39.62 52.9999 37.67Z" fill="#FEE269"/>
<path d="M63.0001 20.27C62.0701 22.01 62.3801 23.35 64.2301 23.79C66.0801 24.23 77.5901 26.1 78.5601 26.16C79.9701 26.25 80.4901 25.19 80.3201 23.96C80.1401 22.73 77.3301 5.50001 77.0701 3.92001C76.8101 2.34001 75.1401 0.760005 73.5501 2.87C71.9601 4.98 63.7001 18.96 63.0001 20.27ZM92.8001 32.23C90.9901 32.79 91.0401 33.9 92.0101 35.31C92.9801 36.72 99.6601 46.91 100.27 47.62C100.89 48.32 101.94 48.5 102.82 47.44C103.7 46.39 114.68 30.99 115.48 30.03C116.8 28.45 116.01 26.78 113.99 27.3C112.45 27.71 93.9401 31.88 92.8001 32.23ZM106.6 61.86C105.3 61.12 103.61 61.33 103.17 63C102.73 64.67 100.8 76.8 100.62 77.86C100.44 78.92 101.24 79.97 102.55 79.71C103.86 79.45 122 76.76 123.21 76.46C125.32 75.93 126.02 73.82 123.83 72.24C122.41 71.21 107.83 62.56 106.6 61.86V61.86ZM92.0901 90.6C93.4901 89.85 94.7301 90.42 95.0801 92.01C95.4301 93.59 99.3001 109.77 99.9201 112.76C100.23 114.26 98.5101 115.49 97.1101 114.61C95.7001 113.73 80.4201 103.08 79.4401 102.21C78.0301 100.98 79.0101 99.7 79.7001 99.05C81.1001 97.72 90.7701 91.31 92.0901 90.6V90.6ZM49.5401 99.48C47.7701 99.31 47.2501 100.89 47.5201 102.29C47.7801 103.7 50.4201 121.53 50.6001 122.86C50.8601 124.79 52.8901 125.59 54.2001 123.65C55.5101 121.71 64.5501 107.25 65.2801 105.89C66.6001 103.43 65.6301 102.9 64.3101 102.29C63.0001 101.68 51.3901 99.66 49.5401 99.48ZM24.2301 79C25.4601 76.98 27.0401 77.51 28.1901 79.44C28.9701 80.76 35.5701 89.64 36.1901 90.6C36.8101 91.57 37.0701 93.41 35.1401 93.85C33.1901 94.3 17.4601 98.43 15.0001 98.87C12.5401 99.31 11.1301 97.38 12.7101 95.27C13.6301 94.03 23.5301 80.15 24.2301 79ZM20.8901 63.7C23.1401 64.7 24.2001 64.34 24.6701 62.73C25.2901 60.62 27.1301 50.95 27.2201 48.75C27.2801 47.32 26.6901 45.94 24.4901 46.29C22.2901 46.64 6.47008 48.85 4.45008 49.55C2.10008 50.37 2.27008 52.95 3.83008 53.77C5.68008 54.74 19.3001 63 20.8901 63.7V63.7ZM48.2301 26.78C49.5001 25.77 49.1101 24.32 47.9701 23.53C46.8301 22.74 32.7101 12.53 30.9201 11.13C29.3401 9.9 27.4001 10.34 27.9301 13.15C28.3101 15.17 32.8101 32.85 33.1201 34.07C33.4701 35.48 34.5301 36.18 35.7601 35.3C36.9701 34.43 46.9101 27.84 48.2301 26.78V26.78Z" fill="#FFA722"/>
</svg>
